<svg width="494" height="189" viewBox="0 0 494 189" fill="none" xmlns="http://www.w3.org/2000/svg">
<g clip-path="url(#clip0_1_2)">
<path d="M143.014 117.827L141.783 111.322H132.524L131.294 117.827H123.324L131.235 76.807H143.365L150.866 117.827H143.014ZM137.036 84.425L134.751 98.0788L133.462 105.052H140.787L139.439 98.0788L137.154 84.425H137.036ZM153.986 87.8824H160.256L161.135 89.992C161.994 89.2107 162.795 88.6637 163.537 88.3512C164.319 88.0387 165.471 87.8824 166.995 87.8824H172.269C173.91 89.4841 175.199 91.5547 176.136 94.094C177.074 96.6333 177.543 99.4266 177.543 102.474C177.543 108.998 175.589 114.116 171.683 117.827H166.702C164.631 117.827 162.99 117.28 161.779 116.186V126.617H153.986V87.8824ZM161.779 111.674H167.405C168.85 109.213 169.573 106.224 169.573 102.708C169.573 99.1922 168.831 96.3013 167.346 94.0354H161.779V111.674ZM181.74 87.8824H188.011L188.89 89.992C189.749 89.2107 190.55 88.6637 191.292 88.3512C192.074 88.0387 193.226 87.8824 194.75 87.8824H200.024C201.664 89.4841 202.954 91.5547 203.891 94.094C204.829 96.6333 205.298 99.4266 205.298 102.474C205.298 108.998 203.344 114.116 199.438 117.827H194.457C192.386 117.827 190.745 117.28 189.534 116.186V126.617H181.74V87.8824ZM189.534 111.674H195.16C196.605 109.213 197.328 106.224 197.328 102.708C197.328 99.1922 196.586 96.3013 195.101 94.0354H189.534V111.674ZM221.157 111.029H231.47V117.827H216.586C214.008 115.405 212.054 112.338 210.726 108.627C209.398 104.915 208.734 101.106 208.734 97.1998C208.734 93.2541 209.476 89.4646 210.96 85.8314C212.445 82.1982 214.652 79.1901 217.582 76.807H231.47V83.839H221.157C220.102 85.0501 219.184 87.0034 218.403 89.699C217.66 92.3946 217.289 94.973 217.289 97.4342C217.289 99.8954 217.66 102.474 218.403 105.169C219.184 107.865 220.102 109.818 221.157 111.029ZM235.535 117.827V87.8824H241.102L242.567 91.0468C244.129 88.9372 246.102 87.8824 248.485 87.8824H250.771V95.7348H243.329V117.827H235.535ZM267.11 104.29H260.84C260.019 105.306 259.609 106.576 259.609 108.099C259.609 109.623 260.039 110.815 260.898 111.674H267.11V104.29ZM254.511 87.8824H269.044C271.388 89.2888 272.931 90.9101 273.673 92.7462C274.416 94.5433 274.787 97.0045 274.787 100.13V108.92C274.787 112.162 274.865 115.131 275.021 117.827H268.341L267.286 115.717C265.762 117.124 263.614 117.827 260.84 117.827H257.148C253.827 115.639 252.167 112.494 252.167 108.392C252.167 104.251 253.866 100.989 257.265 98.6062H262.774C264.297 98.6062 265.723 99.075 267.051 100.013V97.0826C267.051 95.559 266.387 94.5433 265.059 94.0354H254.511V87.8824ZM287.107 76.807H295.545V82.96H290.271C288.943 83.7804 288.279 85.4212 288.279 87.8824H294.373V94.0354H288.279V117.827H280.485V94.0354H277.262V87.8824H280.485C280.485 82.8037 282.692 79.1119 287.107 76.807ZM299.153 104.759V94.0354H295.11V87.8824H299.153V79.737H306.947V87.8824H311.752V94.0354H306.947V106.634C306.947 109.017 307.357 110.697 308.178 111.674H311.752V117.827H303.431C301.361 115.913 300.11 113.842 299.681 111.615C299.329 109.74 299.153 107.455 299.153 104.759ZM328.615 94.0354H324.22C323.634 94.7386 323.146 95.7153 322.755 96.9654C322.403 98.2155 322.227 99.4266 322.227 100.599H330.607C330.685 99.4266 330.529 98.2155 330.138 96.9654C329.748 95.6762 329.24 94.6995 328.615 94.0354ZM336.584 111.674V117.827H321.7C318.965 115.991 317.032 113.725 315.899 111.029C314.805 108.295 314.258 105.541 314.258 102.767C314.258 96.3599 316.68 91.3984 321.524 87.8824H331.017C333.635 89.7967 335.412 91.8281 336.35 93.9768C337.288 96.1255 337.756 98.2937 337.756 100.481C337.756 102.669 337.581 104.544 337.229 106.107H322.638C322.755 107.006 323.087 108.041 323.634 109.213C324.22 110.346 324.845 111.166 325.509 111.674H336.584ZM341.747 117.827V87.8824H347.314L348.779 91.0468C350.342 88.9372 352.315 87.8824 354.698 87.8824H356.983V95.7348H349.541V117.827H341.747ZM362.702 87.8824H375.653V94.0354H366.511L372.078 102.298C374.579 105.853 375.965 108.295 376.239 109.623C376.395 110.248 376.473 110.893 376.473 111.557C376.473 114.331 375.438 116.421 373.367 117.827H358.424V111.674H369.148L362.878 102.474C362.605 102.044 362.175 101.439 361.589 100.657C361.042 99.8759 360.612 99.2508 360.3 98.782C359.987 98.2741 359.772 97.903 359.655 97.6686C359.538 97.4342 359.382 97.1412 359.186 96.7896C358.991 96.3989 358.854 96.0669 358.776 95.7934C358.62 95.0511 358.542 94.4456 358.542 93.9768C358.542 91.1249 359.929 89.0935 362.702 87.8824Z" fill="white"/>
<path d="M98.555 0H15.609C7.002 0 0 7.002 0 15.608V172.757C0 181.364 7.003 188.366 15.609 188.366H98.555C107.162 188.366 114.163 181.363 114.163 172.757V15.608C114.163 7.002 107.162 0 98.555 0ZM102.557 172.758C102.557 174.965 100.762 176.761 98.555 176.761H15.609C13.402 176.761 11.606 174.965 11.606 172.758V15.608C11.606 13.401 13.404 11.606 15.609 11.606H29.891C30.377 15.607 33.784 18.708 37.915 18.708H76.245C80.383 18.708 83.785 15.607 84.269 11.606H98.556C100.762 11.606 102.558 13.401 102.558 15.608L102.557 172.758Z" fill="white"/>
<path fill-rule="evenodd" clip-rule="evenodd" d="M85.7287 130.095C88.3563 132.732 89.9794 130.857 92.1369 128.704C94.2945 126.551 96.165 124.923 93.5374 122.291C93.5374 122.291 56.9089 85.6971 47.8632 76.6761L40.0545 84.4798L85.7287 130.095Z" fill="white"/>
<path fill-rule="evenodd" clip-rule="evenodd" d="M25.511 90.8336L28.5494 87.8447C28.5494 87.8447 27.2083 84.168 29.1729 82.4064C31.1374 80.6447 34.4529 81.7334 34.4529 81.7334L45.1168 71.4258C45.1168 71.4258 44.3696 66.0666 45.3593 65.0769C46.3489 64.0872 57.4087 58.6984 58.4776 57.6196L56.2063 55.3483C56.2063 55.3483 40.7275 57.2089 39.05 58.8814C38.0652 59.8711 30.697 67.3136 25.4417 72.5689C25.4417 72.5689 26.758 76.3247 25.0261 78.0567C23.2892 79.7936 19.3799 78.5515 19.3799 78.5515C17.5341 80.3973 16.297 81.6295 16.297 81.6295C14.9956 82.9408 15.7626 84.7816 17.3609 86.38L20.7556 89.7746C22.3638 91.3779 24.2096 92.135 25.511 90.8336Z" fill="white"/>
<path fill-rule="evenodd" clip-rule="evenodd" d="M73.4367 83.4109C78.7662 85.9396 85.4516 85.1627 89.8755 80.7387C93.2899 77.3243 94.6458 72.6282 93.9184 68.2142L86.3918 75.7309L79.9885 77.3194L72.7539 70.1837L74.4512 63.5676L81.9085 56.2043C77.4895 55.4819 72.4965 56.526 69.0821 59.9454C64.6533 64.3742 64.0495 71.2229 66.5782 76.5573L61.6594 81.4711C63.8219 83.6237 66.1328 85.9346 68.5279 88.3247L73.4367 83.4109Z" fill="white"/>
<path fill-rule="evenodd" clip-rule="evenodd" d="M52.1535 106.194L44.7061 98.7511L38.2335 105.229C37.8277 105.624 37.5407 106.075 37.3378 106.545C36.9568 106.396 36.744 106.392 36.6104 106.446C35.3733 106.035 34.0669 105.758 32.6962 105.758C25.8624 105.758 20.3251 111.226 20.3251 117.976C20.3251 124.726 25.8624 130.194 32.6962 130.194C39.53 130.194 45.0673 124.726 45.0673 117.976C45.0673 116.575 44.7753 115.249 44.3448 113.997C44.3201 113.879 44.3151 113.77 44.2459 113.596C44.7605 113.384 45.2454 113.097 45.671 112.666L52.1535 106.194ZM32.6962 125.092C28.678 125.092 25.4269 121.91 25.4269 117.976C25.4269 114.042 28.6731 110.86 32.6962 110.86C36.7193 110.86 39.9655 114.042 39.9655 117.976C39.9655 121.91 36.7143 125.092 32.6962 125.092Z" fill="white"/>
</g>
<defs>
<clipPath id="clip0_1_2">
<rect width="493.481" height="188.366" fill="white"/>
</clipPath>
</defs>
</svg>
